<svg width="16299" height="5928" viewBox="0 0 16299 5928" fill="none" xmlns="http://www.w3.org/2000/svg">
<g clip-path="url(#clip0_1110_251)">
<path d="M16270.3 3734.07L15778.4 3096.8L16227.2 2737.06C16241.4 2726.97 16252.8 2713.58 16260.6 2698.05C16268.4 2682.52 16272.2 2665.32 16271.8 2647.97C16272.3 2633.88 16269.9 2619.84 16264.8 2606.71C16259.6 2593.59 16251.8 2581.68 16241.8 2571.71C16231.8 2561.74 16219.9 2553.93 16206.8 2548.78C16193.7 2543.62 16179.6 2541.22 16165.6 2541.73C16151.5 2541 16137.4 2543.39 16124.4 2548.74C16111.4 2554.08 16099.7 2562.25 16090.2 2572.65L15446 3096.8V1945.63C15445.6 1931.22 15442.3 1917.04 15436.4 1903.9C15430.5 1890.76 15422 1878.91 15411.5 1869.05C15401 1859.18 15388.6 1851.48 15375.2 1846.39C15361.7 1841.3 15347.3 1838.92 15332.9 1839.39C15318.8 1838.88 15304.8 1841.28 15291.6 1846.44C15278.5 1851.6 15266.6 1859.4 15256.6 1869.37C15246.7 1879.34 15238.9 1891.26 15233.7 1904.38C15228.5 1917.5 15226.1 1931.54 15226.7 1945.63V3802.65C15227.1 3817.06 15230.4 3831.24 15236.3 3844.38C15242.2 3857.52 15250.7 3869.37 15261.2 3879.23C15271.7 3889.1 15284 3896.8 15297.5 3901.89C15311 3906.98 15325.4 3909.35 15339.8 3908.89C15353.9 3909.4 15367.9 3907 15381 3901.84C15394.2 3896.68 15406.1 3888.88 15416 3878.91C15426 3868.94 15433.8 3857.02 15439 3843.9C15444.1 3830.78 15446.5 3816.74 15446 3802.65V3353.82L15596.8 3233.95L16093.6 3860.97C16104 3875.3 16117.3 3887.29 16132.7 3896.15C16148 3905.01 16165.1 3910.55 16182.7 3912.4C16196.8 3912.91 16210.8 3910.51 16224 3905.35C16237.1 3900.2 16249 3892.39 16259 3882.42C16268.9 3872.45 16276.7 3860.54 16281.9 3847.41C16287.1 3834.29 16289.5 3820.25 16288.9 3806.16C16291.6 3793.65 16291.5 3780.69 16288.5 3768.24C16285.6 3755.79 16279.8 3744.17 16271.8 3734.21L16270.3 3734.07ZM14519.2 3113.94C14354.8 3055.77 14221.3 3007.71 14221.3 2889.11C14221.3 2770.5 14372.1 2738.32 14454.3 2738.32C14566.7 2732.28 14673.5 2773.45 14752.2 2851.44C14761.7 2861.83 14773.4 2869.98 14786.4 2875.33C14799.4 2880.67 14813.5 2883.07 14827.5 2882.36C14852.8 2881.75 14876.9 2871.45 14894.7 2853.58C14912.6 2835.71 14922.9 2811.65 14923.5 2786.38C14922.8 2761.62 14914.4 2737.68 14899.6 2717.81C14845.8 2654.08 14777.8 2603.85 14701 2571.15C14624.3 2538.45 14540.9 2524.19 14457.7 2529.51C14180.1 2529.51 14008.8 2673.4 14008.8 2889.25C14008.8 3159.89 14248.7 3240.55 14457.7 3317.56C14615.3 3368.99 14755.6 3413.54 14755.6 3533.41C14755.6 3653.27 14577.4 3721.71 14471.2 3721.71C14341.9 3728.31 14216.2 3679.55 14125 3588.21C14104.2 3568.47 14078 3555.36 14049.7 3550.55C14024.4 3551.16 14000.4 3561.46 13982.5 3579.33C13964.6 3597.2 13954.3 3621.26 13953.7 3646.53C13954.5 3671.29 13962.8 3695.23 13977.6 3715.1C14040.1 3785.08 14117.5 3840.17 14204 3876.33C14290.6 3912.49 14384.2 3928.8 14477.9 3924.06C14793.1 3924.06 14978.2 3773.28 14978.2 3533.41C14978.2 3293.53 14728.1 3187.3 14519.1 3115.35L14519.2 3113.94ZM13224.1 2723.29C13448.9 2723.29 13561.4 2850.04 13570.2 3096.8H12840.4C12864.3 2856.93 12998.1 2723.29 13224.1 2723.29ZM13786.2 3096.8C13785.7 2969.23 13748.8 2844.45 13680 2737.06C13627.9 2666.44 13558.8 2610.21 13479.1 2573.66C13399.4 2537.11 13311.7 2521.43 13224.2 2528.1C12843.9 2528.1 12624.6 2781.6 12624.6 3223.69C12624.6 3665.78 12840.4 3926.03 13255 3926.03C13422.4 3932.08 13585.7 3873.17 13710.7 3761.62C13722.5 3752.92 13732.1 3741.57 13738.6 3728.48C13745.2 3715.39 13748.5 3700.93 13748.4 3686.3C13747.8 3661.03 13737.5 3636.97 13719.6 3619.1C13701.7 3601.23 13677.7 3590.92 13652.4 3590.32C13630.7 3590.66 13609.9 3599.25 13594.2 3614.35C13501.6 3690.83 13385.4 3733.15 13265.3 3734.21C13018.5 3734.21 12860.9 3569.8 12854.1 3305.9H13659.3C13786.1 3292.13 13786.1 3172.4 13786.1 3096.94L13786.2 3096.8ZM11801.9 3727.05C11548.4 3727.05 11421.6 3562.64 11421.6 3226.78C11421.6 2890.93 11548.4 2726.52 11801.9 2726.52C11877 2730.64 11949.6 2754.31 12012.8 2795.18C12075.9 2836.05 12127.2 2892.69 12161.7 2959.51V3350.16C12158.3 3583.15 12024.6 3727.05 11798.5 3727.05H11801.9ZM12267.9 1832.37C12253.8 1831.86 12239.8 1834.25 12226.6 1839.41C12213.5 1844.57 12201.6 1852.38 12191.6 1862.35C12181.7 1872.31 12173.9 1884.23 12168.7 1897.35C12163.5 1910.47 12161.1 1924.51 12161.7 1938.6V2671.86C12064.5 2575.46 11933.2 2521.28 11796.3 2521.07C11407.9 2521.07 11213.8 2752.94 11213.8 3216.67C11213.8 3682.64 11422.7 3919 11813.4 3919C12204.1 3919 12389 3703.16 12389 3343.42V1945.49C12385.8 1914.84 12371.5 1886.43 12348.7 1865.6C12326 1844.77 12296.5 1832.95 12265.6 1832.37H12267.9ZM10448.4 2520.93C10380.4 2517.97 10312.6 2530.65 10250.2 2557.98C10187.9 2585.31 10132.6 2626.57 10088.7 2678.6V1945.21C10089.1 1930.22 10086.6 1915.29 10081 1901.35C10075.5 1887.4 10067.2 1874.73 10056.6 1864.13C10046 1853.53 10033.3 1845.21 10019.4 1839.7C10005.4 1834.19 9990.52 1831.6 9975.53 1832.09C9960.82 1831.48 9946.15 1834.05 9932.52 1839.62C9918.89 1845.19 9906.62 1853.63 9896.54 1864.36C9886.46 1875.09 9878.81 1887.86 9874.11 1901.81C9869.41 1915.77 9867.76 1930.56 9869.29 1945.21V3802.23C9868.82 3816.64 9871.2 3830.99 9876.29 3844.48C9881.37 3857.97 9889.07 3870.32 9898.94 3880.83C9908.81 3891.33 9920.65 3899.79 9933.8 3905.72C9946.94 3911.64 9961.12 3914.91 9975.53 3915.35C9990.52 3915.84 10005.4 3913.25 10019.4 3907.73C10033.3 3902.22 10046 3893.91 10056.6 3883.3C10067.2 3872.7 10075.5 3860.03 10081 3846.09C10086.6 3832.14 10089.1 3817.22 10088.7 3802.23V3103.26C10088.7 2849.76 10208.6 2723.01 10448.4 2723.01C10688.3 2723.01 10770.5 2829.24 10770.5 3082.75V3802.23C10770 3817.22 10772.6 3832.14 10778.1 3846.09C10783.6 3860.03 10792 3872.7 10802.6 3883.3C10813.2 3893.91 10825.8 3902.22 10839.8 3907.73C10853.7 3913.25 10868.7 3915.84 10883.6 3915.35C10898.4 3915.95 10913 3913.38 10926.7 3907.81C10940.3 3902.25 10952.6 3893.81 10962.6 3883.08C10972.7 3872.35 10980.4 3859.57 10985.1 3845.62C10989.8 3831.67 10991.4 3816.87 10989.9 3802.23V3045.51C10982.9 2699.4 10804.8 2521.35 10445 2521.35L10448.4 2520.93ZM9153.28 3113.66C8988.85 3055.49 8855.35 3007.43 8855.35 2888.82C8855.35 2770.22 9006.14 2738.04 9088.35 2738.04C9200.78 2732 9307.58 2773.17 9386.28 2851.16C9405.47 2870.04 9431.31 2880.63 9458.23 2880.63C9485.15 2880.63 9510.99 2870.04 9530.18 2851.16C9540.57 2841.66 9548.72 2829.98 9554.07 2816.96C9559.41 2803.94 9561.81 2789.9 9561.1 2775.84C9560.36 2751.08 9552.02 2727.14 9537.21 2707.27C9483.37 2643.54 9415.35 2593.31 9338.6 2560.61C9261.84 2527.91 9178.5 2513.65 9095.24 2518.97C8817.68 2518.97 8646.38 2662.86 8646.38 2878.71C8646.38 3149.35 8886.26 3230.02 9095.24 3307.02C9252.91 3358.45 9393.17 3403 9393.17 3522.87C9393.17 3642.73 9214.97 3711.17 9108.73 3711.17C8979.44 3717.77 8853.8 3669.01 8762.6 3577.67C8741.78 3557.93 8715.56 3544.82 8687.27 3540.01C8662.01 3540.62 8637.94 3550.92 8620.07 3568.79C8602.2 3586.66 8591.89 3610.72 8591.29 3635.99C8592.03 3660.76 8600.37 3684.7 8615.18 3704.56C8675.87 3776.06 8751.51 3833.36 8836.76 3872.43C8922.02 3911.5 9014.81 3931.38 9108.59 3930.67C9423.8 3930.67 9608.88 3779.88 9608.88 3540.01C9608.88 3300.14 9358.73 3188.7 9149.76 3115.21L9153.28 3113.66ZM7864.88 2723.01C8089.73 2723.01 8202.15 2849.76 8211.01 3096.52H7477.71C7501.6 2856.64 7635.39 2723.01 7861.36 2723.01H7864.88ZM8416.61 3096.52C8416.07 2968.95 8379.22 2844.17 8310.36 2736.78C8258.35 2666.16 8189.23 2609.93 8109.51 2573.38C8029.78 2536.83 7942.07 2521.15 7854.62 2527.82C7474.34 2527.82 7254.97 2781.32 7254.97 3223.41C7254.97 3665.5 7470.82 3929.26 7882.02 3929.26C8049.46 3935.31 8212.76 3876.4 8337.77 3764.85C8349.54 3756.16 8359.09 3744.8 8365.64 3731.71C8372.19 3718.62 8375.54 3704.16 8375.43 3689.53C8374.82 3664.26 8364.52 3640.2 8346.65 3622.33C8328.77 3604.46 8304.71 3594.16 8279.45 3593.55C8257.71 3593.89 8236.91 3602.48 8221.27 3617.58C8128.59 3694.06 8012.44 3736.38 7892.28 3737.45C7645.51 3737.45 7487.97 3573.03 7481.08 3309.13H8289.71C8416.47 3291.99 8416.47 3172.12 8416.47 3096.66L8416.61 3096.52ZM7089.28 2528.1C7017.12 2524.45 6945.18 2538.83 6879.97 2569.94C6814.75 2601.05 6758.31 2647.9 6715.74 2706.28V2648.11C6715.74 2618.11 6703.83 2589.33 6682.61 2568.12C6661.39 2546.9 6632.62 2534.99 6602.62 2534.99C6572.61 2534.99 6543.84 2546.9 6522.62 2568.12C6501.41 2589.33 6489.49 2618.11 6489.49 2648.11V3802.79C6489 3817.78 6491.59 3832.71 6497.1 3846.65C6502.61 3860.6 6510.93 3873.26 6521.53 3883.87C6532.14 3894.47 6544.81 3902.78 6558.75 3908.3C6572.7 3913.81 6587.63 3916.4 6602.62 3915.91C6617.73 3916.93 6632.9 3914.7 6647.08 3909.37C6661.27 3904.05 6674.15 3895.75 6684.87 3885.04C6695.58 3874.32 6703.88 3861.44 6709.2 3847.25C6714.53 3833.07 6716.76 3817.91 6715.74 3802.79V3165.52C6715.74 2894.87 6859.65 2737.2 7089.28 2737.2C7103.37 2737.71 7117.41 2735.31 7130.53 2730.15C7143.65 2725 7155.57 2717.19 7165.54 2707.22C7175.51 2697.25 7183.32 2685.34 7188.48 2672.22C7193.63 2659.09 7196.03 2645.05 7195.52 2630.96C7194.68 2603.39 7183.1 2577.24 7163.26 2558.07C7143.41 2538.91 7116.87 2528.26 7089.28 2528.38V2528.1ZM6232.59 1907.97C5859.06 1907.97 5722.04 2171.73 5722.04 2418.49V2569.27H5650.09C5634.76 2566.45 5619.01 2567.04 5603.93 2570.98C5588.86 2574.93 5574.84 2582.14 5562.87 2592.11C5550.89 2602.08 5541.26 2614.56 5534.64 2628.67C5528.03 2642.78 5524.61 2658.17 5524.61 2673.75C5524.61 2689.33 5528.03 2704.72 5534.64 2718.83C5541.26 2732.94 5550.89 2745.42 5562.87 2755.39C5574.84 2765.36 5588.86 2772.58 5603.93 2776.52C5619.01 2780.47 5634.76 2781.05 5650.09 2778.23H5725.41V3812.91C5724.92 3827.9 5727.52 3842.82 5733.03 3856.77C5738.54 3870.71 5746.86 3883.38 5757.46 3893.98C5768.06 3904.59 5780.73 3912.9 5794.68 3918.41C5808.62 3923.93 5823.55 3926.52 5838.54 3926.03C5853.66 3927.05 5868.82 3924.82 5883.01 3919.49C5897.19 3914.17 5910.08 3905.87 5920.79 3895.15C5931.51 3884.44 5939.8 3871.56 5945.13 3857.37C5950.46 3843.19 5952.69 3828.03 5951.67 3812.91V2767.83H6191.56C6206.79 2770.46 6222.42 2769.73 6237.34 2765.69C6252.27 2761.65 6266.13 2754.39 6277.95 2744.43C6289.78 2734.47 6299.28 2722.05 6305.81 2708.03C6312.33 2694.02 6315.71 2678.74 6315.71 2663.28C6315.71 2647.82 6312.33 2632.55 6305.81 2618.53C6299.28 2604.52 6289.78 2592.09 6277.95 2582.13C6266.13 2572.17 6252.27 2564.92 6237.34 2560.88C6222.42 2556.84 6206.79 2556.1 6191.56 2558.73H5950.97V2407.95C5950.97 2274.45 6002.4 2110.04 6242.15 2110.04C6255.47 2110.96 6268.84 2109.19 6281.46 2104.85C6294.09 2100.5 6305.71 2093.67 6315.65 2084.75C6325.71 2075.91 6333.81 2065.07 6339.45 2052.92C6345.09 2040.78 6348.13 2027.59 6348.39 2014.2C6346.6 1985.42 6333.9 1958.41 6312.88 1938.67C6291.86 1918.93 6264.1 1907.95 6235.26 1907.97H6232.59Z" fill="#4D4D4D"/>
<path d="M2493.87 600.396H4207.24C4283 599.74 4358.13 614.177 4428.24 642.863C4498.36 671.55 4562.06 713.912 4615.63 767.478C4669.2 821.044 4711.57 884.742 4740.25 954.854C4768.94 1024.97 4783.38 1100.09 4782.72 1175.84V2889.11C4782.57 3491.93 4543.02 4070.01 4116.74 4496.27C3690.46 4922.53 3112.33 5162.07 2509.47 5162.22H2496.54C2197.82 5162.55 1901.95 5104.02 1625.86 4989.97C1349.76 4875.92 1098.85 4708.59 887.451 4497.54C676.069 4286.46 508.382 4035.78 393.985 3759.84C279.588 3483.89 220.726 3188.1 220.766 2889.39C220.766 1629.73 1236.81 613.746 2494.02 600.818L2493.87 600.396Z" fill="#25C16F"/>
<path d="M2493.87 1616.38C2216.83 1616.38 1951.14 1726.43 1755.25 1922.31C1559.35 2118.2 1449.3 2383.87 1449.3 2660.9V3371.1C1451.37 3462.58 1488.64 3549.74 1553.34 3614.44C1618.05 3679.14 1705.21 3716.4 1796.69 3718.48H2092.23V2903.44H1693.12V2675.37C1717.43 2245.79 2072.84 1909.94 2503.15 1909.94C2933.46 1909.94 3290.13 2247.19 3313.18 2675.37V2903.44H2908.86V3718.48H3175.88V3731.4C3174.54 3816.22 3140.24 3897.19 3080.26 3957.17C3020.27 4017.15 2939.3 4051.44 2854.48 4052.78H2535.47C2509.61 4052.78 2481.08 4065.71 2481.08 4091.71C2482.49 4119.81 2505.96 4144.82 2535.47 4146.09H2856.87C2966.64 4145.39 3071.72 4101.47 3149.34 4023.86C3226.96 3946.24 3270.88 3841.17 3271.58 3731.4V3705.55C3347.79 3688.15 3415.79 3645.27 3464.34 3584.01C3512.89 3522.74 3539.08 3446.74 3538.59 3368.57V2673.96C3553.06 2085.45 3086.5 1616.38 2493.87 1616.38Z" fill="white"/>
</g>
<defs>
<clipPath id="clip0_1110_251">
<rect width="16299" height="5928" fill="white"/>
</clipPath>
</defs>
</svg>
